<!DOCTYPE svg PUBLIC "-//W3C//DTD SVG 20010904//EN" "http://www.w3.org/TR/2001/REC-SVG-20010904/DTD/svg10.dtd">
<svg version="1.0" xmlns="http://www.w3.org/2000/svg" height="80px" viewBox="0 0 12000 2910" preserveAspectRatio="xMidYMid meet">
<g id="layer101" fill="#000000" stroke="none">
<path d="M5092 2898 c-6 -7 -51 -84 -101 -172 -63 -109 -91 -168 -91 -190 0 -18 26 -146 58 -284 l58 -252 -1387 0 -1388 0 -19 -25 c-21 -26 -32 -24 -32 7 0 17 -15 18 -289 18 l-289 0 -126 -145 -127 -145 -71 0 c-60 0 -76 -4 -95 -22 -13 -12 -25 -20 -27 -17 -2 2 -23 77 -46 167 l-43 162 -281 0 -281 -1 -205 -190 c-113 -105 -229 -213 -258 -241 l-52 -49 242 -755 242 -754 286 0 285 1 135 186 135 186 16 -54 16 -54 79 -3 79 -3 34 -129 34 -130 294 0 293 0 12 25 c12 27 28 24 28 -6 0 -18 10 -19 300 -19 l300 0 6 25 c8 32 24 32 24 0 l0 -25 301 2 301 3 50 125 c27 69 54 126 58 128 5 2 15 20 21 40 l13 37 12 -80 c6 -44 17 -119 24 -167 l12 -88 303 0 303 0 10 38 10 37 1 -37 1 -38 625 0 625 0 5 23 c2 12 6 38 8 57 2 22 4 14 5 -22 l2 -58 208 0 c115 0 398 -3 630 -7 l421 -6 4 49 3 49 2 -47 2 -48 630 0 630 0 1 43 1 42 11 -42 10 -43 623 0 623 0 4 33 4 32 13 -32 14 -33 618 0 c605 0 618 0 618 19 0 31 19 35 32 7 l11 -26 613 0 613 0 56 173 c30 96 55 177 55 181 0 4 -53 71 -117 149 -64 77 -116 149 -116 158 1 10 40 143 87 296 47 153 103 341 126 418 l40 139 -242 243 -243 243 -286 0 -286 0 -87 -357 c-49 -197 -100 -407 -115 -467 l-27 -110 -129 182 -130 181 -98 0 -97 1 6 28 c3 15 7 32 9 39 2 6 -73 121 -166 255 l-170 243 -1478 5 -1477 5 58 250 c32 138 58 264 57 280 0 20 -33 86 -102 200 l-102 170 -896 3 c-710 2 -899 -1 -907 -10z m1678 -1842 c0 -29 -3 -74 -6 -100 l-7 -46 -292 0 -292 0 -7 53 c-3 28 -6 73 -6 100 l0 47 305 0 305 0 0 -54z"/>
</g>
<g id="layer102" fill="#333333" stroke="none">
<path d="M5143 2822 c-22 -14 -143 -280 -130 -286 7 -2 4 -5 -5 -5 -39 -2 -32 -57 66 -464 53 -218 96 -400 96 -402 0 -3 373 -5 829 -5 l829 0 7 33 c4 17 45 187 90 377 46 190 86 361 90 380 6 31 -4 57 -75 200 -45 91 -87 168 -94 172 -15 10 -1688 10 -1703 0z m699 -529 c15 -15 28 -36 28 -47 0 -18 -4 -16 -33 12 l-33 32 -162 0 c-137 0 -162 2 -162 15 0 13 25 15 167 15 l167 0 28 -27z m246 7 c2 -12 -10 -15 -58 -15 -51 0 -60 3 -60 18 0 16 8 18 57 15 42 -2 59 -7 61 -18z m432 5 c0 -12 -30 -15 -175 -17 -167 -3 -193 1 -168 25 3 4 82 7 175 7 140 0 168 -2 168 -15z m-96 -214 c36 -46 66 -91 66 -99 0 -15 -149 165 -150 181 -1 20 23 -3 84 -82z m-664 65 c0 -29 -16 -36 -86 -36 -67 0 -74 2 -74 20 0 18 7 20 80 20 44 0 80 -2 80 -4z m92 -83 c10 -9 18 -23 18 -31 0 -12 -6 -10 -25 8 -38 35 -31 58 7 23z m-95 -78 c-9 -21 -147 -22 -147 0 0 11 17 15 73 17 39 2 74 2 76 1 2 -1 1 -9 -2 -18z m570 -2 c3 -8 -20 -12 -76 -15 -72 -3 -81 -1 -81 15 0 16 9 18 77 15 47 -2 78 -7 80 -15z"/>
<path d="M4357 1908 c-21 -17 -140 -343 -140 -385 0 -21 -5 -33 -14 -33 -10 0 -12 -9 -8 -32 3 -18 34 -314 70 -658 36 -344 68 -644 71 -668 l6 -42 545 0 545 0 -3 119 c-2 66 -8 123 -12 128 -5 4 -150 8 -322 8 l-314 0 -5 55 c-3 30 -8 92 -12 137 l-6 83 327 0 328 0 -8 133 c-4 72 -9 134 -12 137 -2 3 -152 6 -331 6 l-327 2 -11 143 c-6 79 -9 146 -7 149 2 2 155 6 339 8 303 4 334 6 330 21 -3 9 -6 73 -7 144 -2 99 -5 127 -16 127 -11 0 -11 4 1 23 7 12 16 34 20 50 l6 27 -139 0 c-124 0 -140 2 -145 18 -2 9 -19 83 -37 165 l-32 147 -332 0 c-249 0 -335 -3 -348 -12z"/>
<path d="M6977 1898 c-21 -34 -60 -290 -52 -338 4 -23 15 -46 27 -54 19 -14 19 -14 1 -20 -18 -6 -20 -39 -41 -634 -13 -345 -25 -657 -29 -694 l-6 -68 552 0 c319 0 551 4 551 9 0 5 11 116 25 247 14 131 25 246 25 256 0 16 -9 18 -75 18 -50 0 -75 -4 -75 -12 0 -6 -3 -9 -6 -5 -3 3 -3 40 1 81 l7 76 84 0 c73 0 84 2 84 18 0 9 16 170 35 357 27 269 32 342 22 350 -7 6 -11 17 -9 26 1 9 -15 95 -38 192 -22 96 -40 178 -40 180 0 3 -7 13 -16 21 -13 14 -48 16 -225 16 -126 0 -218 -4 -230 -10 -26 -14 -24 -29 15 -188 19 -75 37 -149 40 -165 4 -15 15 -36 26 -47 16 -16 17 -20 5 -20 -9 0 -15 -9 -15 -22 0 -13 -9 -138 -20 -278 -11 -140 -20 -265 -20 -278 0 -20 -3 -21 -21 -12 -11 7 -52 10 -92 8 l-72 -3 17 265 c9 146 19 277 21 293 3 21 -1 27 -15 27 -15 0 -16 3 -6 19 9 15 4 55 -25 201 -20 100 -42 189 -48 196 -9 11 -49 14 -180 14 -164 0 -169 -1 -182 -22z m580 -1310 c-3 -18 -9 -80 -12 -138 l-7 -105 -90 0 -89 0 6 115 c9 175 0 160 106 160 l91 0 -5 -32z"/>
<path d="M8173 1913 c-7 -2 -13 -16 -13 -29 0 -35 126 -343 152 -371 15 -16 17 -23 7 -23 -10 0 -15 -14 -17 -48 -1 -26 -34 -331 -72 -677 -39 -347 -70 -641 -70 -653 l0 -22 548 0 547 0 118 688 c65 378 117 693 117 700 0 6 -7 12 -15 12 -8 0 -12 6 -9 14 3 8 -1 27 -9 43 -8 15 -40 100 -72 188 -31 88 -64 166 -73 173 -20 15 -403 17 -433 2 -10 -6 -19 -21 -19 -33 0 -12 23 -92 52 -177 36 -109 60 -163 78 -182 20 -20 24 -30 16 -38 -6 -6 -25 -106 -41 -222 l-30 -211 -93 -1 c-76 -1 -92 2 -92 14 0 8 13 106 28 217 23 163 26 203 15 207 -7 3 -13 18 -13 33 0 39 -119 375 -138 391 -12 9 -74 12 -236 11 -122 0 -227 -3 -233 -6z m540 -1138 l-6 -45 86 0 c94 0 89 -3 99 65 3 17 12 20 61 23 67 4 65 14 39 -153 l-18 -110 -52 -3 -52 -3 0 -35 0 -34 99 0 98 0 -13 -82 c-8 -46 -14 -83 -14 -83 0 0 -49 0 -110 0 -104 0 -109 1 -105 20 3 11 6 47 8 80 l2 60 -80 0 -79 0 -7 -35 c-4 -19 -10 -55 -13 -80 l-6 -45 -106 0 -105 0 5 35 c3 19 8 56 12 82 l6 47 97 3 96 3 3 33 c3 32 3 32 -42 32 -54 0 -53 -6 -31 145 8 55 15 106 15 113 0 8 19 12 60 12 l60 0 -7 -45z"/>
<path d="M544 1896 c-34 -15 -410 -372 -406 -387 1 -5 -1 -9 -5 -9 -36 -1 -28 -31 190 -710 l223 -695 226 -3 225 -2 -32 107 c-17 60 -35 118 -39 130 -7 21 -5 22 72 25 l79 3 -33 115 c-18 63 -36 125 -39 138 l-5 22 173 0 174 0 23 -87 c13 -49 29 -109 37 -135 l14 -48 79 0 c78 0 80 0 87 -28 3 -15 18 -74 33 -132 l26 -105 231 -3 230 -2 -103 442 c-57 244 -129 557 -161 696 -49 215 -61 253 -78 259 -18 5 -17 7 8 16 21 7 67 60 163 189 74 99 134 188 132 197 -3 14 -27 16 -198 19 -178 2 -198 0 -227 -17 -33 -21 -323 -361 -323 -379 0 -6 -7 -15 -16 -20 -13 -7 -6 -45 55 -290 39 -155 71 -285 71 -289 0 -5 -39 -7 -87 -6 l-88 1 -37 137 c-20 75 -39 139 -42 142 -2 2 13 20 34 39 63 57 81 106 74 197 -6 72 -5 79 20 117 47 71 24 101 -50 68 -30 -14 -354 -372 -361 -400 -3 -10 -12 -18 -20 -18 -9 0 -12 -7 -9 -17 2 -10 19 -70 36 -133 17 -63 33 -119 34 -125 2 -6 -31 -9 -88 -8 l-91 2 -85 290 c-62 213 -89 291 -100 291 -8 1 -1 7 15 14 37 16 359 358 363 386 3 19 -2 20 -185 20 -134 -1 -197 -5 -219 -14z"/>
<path d="M2280 1888 c-40 -27 -280 -352 -280 -379 0 -10 -7 -19 -15 -19 -8 0 -15 -1 -15 -2 2 -20 308 -1380 312 -1383 3 -3 106 -4 230 -3 l224 3 -135 692 c-102 518 -139 693 -150 693 -8 0 -3 8 12 20 23 18 261 353 273 384 4 11 -34 14 -208 15 -208 2 -215 1 -248 -21z"/>
<path d="M2935 1903 c-11 -3 -25 -9 -31 -14 -20 -17 -224 -364 -224 -382 0 -9 -6 -17 -13 -17 -10 0 22 -186 117 -700 l131 -700 229 0 229 0 -7 48 c-3 26 -12 84 -20 130 l-13 82 78 0 c44 0 79 3 79 8 -1 4 -9 64 -18 134 l-18 126 85 4 c48 2 87 3 89 2 2 -1 19 -121 40 -268 l36 -266 228 0 c225 0 228 0 228 21 0 11 -34 312 -75 667 -41 356 -76 662 -77 680 -1 20 -8 32 -16 32 -10 0 -7 6 7 18 20 17 151 338 151 372 0 10 -7 21 -16 24 -23 9 -427 7 -441 -2 -7 -4 -38 -68 -68 -142 -79 -189 -97 -238 -92 -253 2 -6 -3 -17 -10 -22 -13 -9 -11 -37 12 -195 14 -102 29 -200 32 -219 5 -31 4 -32 -15 -22 -32 17 -131 14 -138 -4 -6 -14 21 -235 32 -277 5 -16 -4 -18 -85 -18 -86 0 -91 1 -96 23 -3 12 -29 175 -59 362 -42 259 -58 342 -71 351 -15 11 -15 13 4 19 27 8 49 50 104 197 54 143 54 166 1 191 -27 13 -62 17 -162 16 -70 -1 -136 -4 -147 -6z"/>
<path d="M9485 1866 c-7 -42 -4 -50 87 -197 51 -84 103 -158 115 -164 17 -9 19 -13 8 -21 -8 -5 -60 -268 -138 -699 -69 -379 -124 -691 -123 -692 1 -1 248 -4 548 -5 l547 -3 30 120 c20 80 27 123 20 130 -13 13 -519 20 -586 7 l-50 -9 28 135 c16 74 29 137 29 139 0 1 148 3 329 3 l329 0 34 139 c32 125 34 141 19 147 -26 13 -545 17 -598 6 -26 -6 -49 -10 -50 -8 -1 1 24 130 57 287 33 156 60 290 60 297 0 6 -6 12 -13 12 -7 0 -13 8 -14 18 -1 11 -57 97 -125 193 -90 126 -133 179 -159 191 -28 15 -62 18 -206 18 l-172 0 -6 -44z"/>
<path d="M11065 1890 c-4 -6 -1 -20 7 -30 34 -50 296 -339 316 -351 16 -9 20 -18 15 -33 -4 -12 -75 -270 -158 -575 l-152 -554 -156 -1 c-85 -1 -158 -4 -162 -8 -7 -7 -64 -224 -65 -245 0 -10 116 -13 548 -13 l549 0 36 118 c21 64 37 122 37 129 0 19 -56 25 -189 21 -66 -1 -121 -1 -121 2 0 14 114 407 210 725 135 445 127 411 100 418 -11 3 -19 10 -18 15 4 15 -366 370 -397 382 -36 14 -392 13 -400 0z"/>
<path d="M5570 1559 c0 -17 5 -39 10 -50 8 -15 7 -19 -5 -19 -12 0 -14 -14 -10 -87 3 -49 12 -302 20 -563 8 -261 18 -537 21 -612 l7 -138 548 0 549 0 0 124 0 124 -64 7 c-35 4 -176 5 -314 4 l-251 -4 -5 90 c-3 50 -8 242 -10 428 l-6 337 340 0 340 0 0 123 c0 67 3 132 6 145 5 16 2 22 -10 22 -13 0 -14 4 -5 24 7 14 9 36 5 50 l-6 26 -580 0 -580 0 0 -31z"/>
</g>
<g id="layer103" fill="#1f434d" stroke="none">
<path d="M5143 2822 c-22 -14 -143 -280 -130 -286 7 -2 4 -5 -5 -5 -39 -2 -32 -57 66 -464 53 -218 96 -400 96 -402 0 -3 373 -5 829 -5 l829 0 7 33 c4 17 45 187 90 377 46 190 86 361 90 380 6 31 -4 57 -75 200 -45 91 -87 168 -94 172 -15 10 -1688 10 -1703 0z m699 -529 c15 -15 28 -36 28 -47 0 -18 -4 -16 -33 12 l-33 32 -162 0 c-137 0 -162 2 -162 15 0 13 25 15 167 15 l167 0 28 -27z m246 7 c2 -12 -10 -15 -58 -15 -51 0 -60 3 -60 18 0 16 8 18 57 15 42 -2 59 -7 61 -18z m432 5 c0 -12 -30 -15 -175 -17 -167 -3 -193 1 -168 25 3 4 82 7 175 7 140 0 168 -2 168 -15z m-96 -214 c36 -46 66 -91 66 -100 0 -9 -3 -11 -8 -5 -28 31 -142 183 -142 189 0 17 24 -6 84 -84z m-664 65 c0 -29 -16 -36 -86 -36 -67 0 -74 2 -74 20 0 18 7 20 80 20 44 0 80 -2 80 -4z m110 -114 c0 -12 -7 -9 -25 8 -14 13 -25 30 -25 38 0 12 7 9 25 -8 14 -13 25 -30 25 -38z m-113 -47 c-9 -21 -147 -22 -147 0 0 11 17 15 73 17 39 2 74 2 76 1 2 -1 1 -9 -2 -18z m570 -2 c3 -8 -20 -12 -76 -15 -72 -3 -81 -1 -81 15 0 16 9 18 77 15 47 -2 78 -7 80 -15z"/>
</g>
<g id="layer104" fill="#4ca1cc" stroke="none">
<path d="M5013 2530 c-12 -5 -25 -21 -29 -35 -5 -21 63 -325 178 -792 l10 -43 829 0 c456 0 829 3 829 8 0 4 29 129 65 277 113 467 126 528 121 551 -4 13 -18 26 -37 33 -40 14 -1932 14 -1966 1z m829 -237 c15 -15 28 -36 28 -47 0 -18 -4 -16 -33 12 l-33 32 -162 0 c-137 0 -162 2 -162 15 0 13 25 15 167 15 l167 0 28 -27z m246 7 c2 -12 -10 -15 -58 -15 -51 0 -60 3 -60 18 0 16 8 18 57 15 42 -2 59 -7 61 -18z m432 5 c0 -12 -30 -15 -175 -17 -167 -3 -193 1 -168 25 3 4 82 7 175 7 140 0 168 -2 168 -15z m-96 -211 c36 -48 66 -94 66 -102 0 -10 -3 -12 -8 -6 -26 29 -142 183 -142 188 0 20 25 -4 84 -80z m-664 62 c0 -29 -16 -36 -86 -36 -67 0 -74 2 -74 20 0 18 7 20 80 20 44 0 80 -2 80 -4z m110 -114 c0 -12 -7 -9 -25 8 -14 13 -25 30 -25 38 0 12 7 9 25 -8 14 -13 25 -30 25 -38z m-113 -47 c-9 -21 -147 -22 -147 0 0 11 17 15 73 17 39 2 74 2 76 1 2 -1 1 -9 -2 -18z m570 -2 c3 -8 -20 -12 -76 -15 -72 -3 -81 -1 -81 15 0 16 9 18 77 15 47 -2 78 -7 80 -15z"/>
</g>
<g id="layer105" fill="#a6a9aa" stroke="none">
<path d="M6177 2283 c-4 -3 -7 -26 -7 -50 0 -40 7 -53 80 -144 44 -54 80 -101 80 -104 0 -3 -33 -5 -74 -5 -41 0 -77 -4 -80 -8 -3 -5 -8 -28 -12 -50 l-7 -42 161 0 c175 0 172 -1 172 63 0 23 -19 55 -75 128 -41 54 -75 100 -75 103 0 3 34 6 75 6 82 0 87 4 100 73 l7 37 -169 0 c-93 0 -173 -3 -176 -7z"/>
<path d="M118 1493 c-10 -2 -18 -5 -18 -6 0 -1 100 -315 223 -697 l223 -695 226 -3 225 -2 -32 107 c-17 60 -35 118 -39 130 -7 21 -5 22 72 25 l79 3 -33 115 c-18 63 -36 125 -39 137 l-5 23 173 0 174 0 23 -87 c13 -49 29 -109 37 -136 l14 -47 79 0 c78 0 80 0 87 -28 3 -15 18 -74 33 -132 l26 -105 231 -3 230 -2 -103 442 c-57 244 -129 557 -161 696 l-58 253 -35 10 c-37 11 -443 9 -455 -2 -3 -4 26 -133 65 -287 38 -155 70 -285 70 -289 0 -5 -39 -7 -87 -6 l-88 1 -28 104 c-15 56 -32 120 -38 141 l-10 37 -160 0 c-148 0 -160 -1 -155 -17 2 -10 19 -70 36 -133 17 -63 33 -119 34 -125 2 -6 -31 -9 -88 -8 l-91 2 -85 290 c-84 286 -85 290 -114 295 -33 7 -412 6 -438 -1z"/>
<path d="M1987 1493 c-12 -3 -15 -11 -12 -26 3 -12 72 -322 154 -690 81 -367 150 -669 153 -672 3 -3 106 -4 230 -3 l224 3 -135 692 -136 691 -29 6 c-33 7 -422 6 -449 -1z"/>
<path d="M2678 1493 c-10 -2 -18 -10 -18 -16 0 -7 57 -321 127 -699 l128 -688 229 0 229 0 -7 47 c-3 27 -12 85 -20 131 l-13 82 78 0 c44 0 79 3 79 8 -1 4 -9 64 -18 134 l-18 126 85 4 c48 2 87 3 89 2 2 -1 19 -121 40 -268 l36 -266 228 0 c225 0 228 0 228 21 0 11 -34 312 -75 667 -41 356 -76 661 -77 679 -2 30 -6 33 -43 38 -69 11 -433 1 -445 -11 -10 -10 15 -233 47 -413 5 -31 4 -32 -15 -22 -32 17 -131 14 -138 -4 -6 -14 21 -235 32 -277 5 -16 -4 -18 -85 -18 -86 0 -91 1 -96 23 -3 12 -29 174 -59 361 -30 186 -59 343 -66 350 -11 11 -425 20 -462 9z"/>
<path d="M4227 1493 c-36 -4 -37 -5 -32 -36 3 -18 34 -313 70 -657 36 -344 68 -644 71 -667 l6 -43 545 0 545 0 -3 119 c-2 66 -8 123 -12 128 -5 4 -150 8 -322 8 l-314 0 -5 55 c-3 30 -8 92 -12 137 l-6 83 327 0 328 0 -8 133 c-4 72 -9 134 -12 137 -2 3 -152 6 -331 6 l-327 2 -11 143 c-6 79 -9 146 -7 149 2 2 155 6 339 8 303 4 334 6 330 21 -3 9 -6 73 -8 142 l-3 127 -59 6 c-63 6 -1025 5 -1089 -1z"/>
<path d="M5598 1493 l-38 -4 5 -87 c3 -48 12 -301 20 -562 8 -261 18 -537 21 -612 l7 -138 548 0 549 0 0 124 0 124 -64 7 c-35 4 -176 5 -314 4 l-251 -4 -5 90 c-3 50 -8 242 -10 428 l-6 337 339 0 339 0 4 143 c2 78 2 144 0 147 -4 6 -1092 9 -1144 3z"/>
<path d="M6960 1487 l-25 -13 -21 -564 c-12 -311 -24 -622 -28 -692 l-5 -128 549 0 c318 0 550 4 550 9 0 5 11 116 25 247 14 131 25 246 25 256 0 16 -9 18 -75 18 -50 0 -75 -4 -75 -12 0 -6 -3 -9 -6 -5 -3 3 -3 40 1 81 l7 76 84 0 c73 0 84 2 84 18 0 9 16 170 34 357 23 225 31 343 25 350 -16 16 -450 19 -471 3 -14 -11 -20 -59 -37 -288 -12 -151 -21 -283 -21 -293 0 -15 -3 -16 -21 -7 -11 7 -52 10 -92 8 l-72 -3 19 288 c10 159 15 291 11 295 -4 4 -104 8 -223 10 -162 2 -223 -1 -242 -11z m597 -899 c-3 -18 -9 -80 -12 -138 l-7 -105 -90 0 -89 0 6 115 c9 175 0 160 106 160 l91 0 -5 -32z"/>
<path d="M8320 1492 c-9 -4 -16 -23 -18 -47 -1 -22 -34 -326 -72 -675 -39 -350 -70 -646 -70 -658 l0 -22 548 0 547 0 119 695 c66 382 116 698 112 702 -4 5 -107 9 -229 11 -183 2 -226 0 -242 -12 -17 -12 -25 -47 -50 -227 l-30 -212 -93 -1 c-76 -1 -92 2 -92 14 0 8 13 106 28 217 l28 202 -29 11 c-33 11 -433 13 -457 2z m393 -717 l-6 -45 86 0 c94 0 89 -3 99 65 3 17 12 20 61 23 67 4 65 14 39 -153 l-18 -110 -52 -3 -52 -3 0 -35 0 -34 99 0 98 0 -13 -82 c-8 -46 -14 -83 -14 -83 0 0 -49 0 -110 0 -104 0 -109 1 -105 20 3 11 6 47 8 80 l2 60 -80 0 -79 0 -7 -35 c-4 -19 -10 -55 -13 -80 l-6 -45 -106 0 -105 0 5 35 c3 19 8 56 12 82 l6 47 97 3 96 3 3 33 c3 32 3 32 -42 32 -54 0 -53 -6 -31 145 8 55 15 106 15 113 0 8 19 12 60 12 l60 0 -7 -45z"/>
<path d="M9705 1491 c-18 -7 -34 -82 -147 -702 -69 -382 -125 -695 -124 -696 1 -1 248 -4 548 -5 l547 -3 30 120 c20 80 27 123 20 130 -13 13 -519 20 -586 7 l-50 -9 28 135 c16 74 29 137 29 139 0 1 148 3 329 3 l329 0 34 139 c32 125 34 141 19 147 -26 13 -545 17 -598 6 -26 -6 -49 -10 -50 -8 -1 1 25 134 59 294 33 161 57 296 54 300 -11 10 -447 13 -471 3z"/>
<path d="M11424 1490 c-16 -6 -27 -31 -48 -107 -15 -54 -85 -309 -155 -567 l-128 -469 -156 -1 c-85 -1 -158 -4 -162 -8 -7 -7 -64 -224 -65 -245 0 -10 116 -13 548 -13 l549 0 36 118 c21 64 37 122 37 129 0 19 -56 25 -189 21 -66 -1 -121 -1 -121 2 0 14 114 407 210 725 136 448 127 411 98 419 -35 9 -430 6 -454 -4z"/>
</g>
<g id="layer106" fill="#78cdef" stroke="none">
<path d="M5031 2531 c-13 -9 1876 -21 1934 -12 26 3 27 5 10 12 -27 11 -1927 11 -1944 0z"/>
</g>
<g id="layer107" fill="#f2f2f2" stroke="none">
<path d="M5479 2286 c-5 -6 19 -374 26 -393 3 -10 44 -13 158 -13 l153 0 27 28 c37 39 38 108 2 142 -14 13 -25 29 -25 35 0 6 11 22 25 35 39 36 35 96 -8 138 l-33 32 -160 0 c-89 0 -163 -2 -165 -4z m275 -121 c13 -35 -4 -45 -80 -45 l-74 0 0 30 0 30 74 0 c56 0 75 -4 80 -15z m1 -155 c0 -24 -3 -25 -72 -28 l-73 -3 0 31 0 31 73 -3 c69 -3 72 -4 72 -28z"/>
<path d="M5977 2283 c-4 -3 -7 -96 -7 -205 l0 -199 53 3 52 3 7 195 c3 107 4 198 2 202 -6 10 -98 11 -107 1z"/>
<path d="M6177 2283 c-4 -3 -7 -26 -7 -50 0 -40 7 -53 80 -144 44 -54 80 -101 80 -104 0 -3 -33 -5 -74 -5 -41 0 -77 -4 -80 -8 -3 -5 -8 -28 -12 -50 l-7 -42 161 0 c175 0 172 -1 172 62 0 22 -21 57 -80 134 l-81 104 80 0 c89 0 93 3 106 73 l7 37 -169 0 c-93 0 -173 -3 -176 -7z"/>
<path d="M120 1490 c-14 -4 86 -8 225 -8 138 0 237 4 220 8 -40 10 -413 10 -445 0z"/>
<path d="M1305 1490 c-12 -5 80 -8 225 -8 137 0 234 4 220 8 -34 11 -420 11 -445 0z"/>
<path d="M1990 1490 c-14 -4 86 -8 225 -8 139 0 239 4 225 8 -14 4 -115 8 -225 8 -110 0 -211 -4 -225 -8z"/>
<path d="M2675 1490 c-12 -5 80 -8 225 -8 137 0 234 4 220 8 -34 11 -420 11 -445 0z"/>
<path d="M3540 1490 c-14 -4 83 -8 220 -8 137 0 234 4 220 8 -14 4 -113 8 -220 8 -107 0 -206 -4 -220 -8z"/>
<path d="M4245 1490 c-27 -4 218 -7 545 -7 327 0 566 3 530 7 -82 10 -1008 9 -1075 0z"/>
<path d="M5610 1490 c-25 -4 221 -7 545 -7 325 0 563 3 530 7 -76 10 -1014 9 -1075 0z"/>
<path d="M6970 1490 c-14 -4 83 -8 220 -8 137 0 234 4 220 8 -14 4 -113 8 -220 8 -107 0 -206 -4 -220 -8z"/>
<path d="M7645 1490 c-12 -5 80 -8 225 -8 137 0 234 4 220 8 -34 11 -420 11 -445 0z"/>
<path d="M8325 1490 c-12 -5 80 -8 225 -8 137 0 234 4 220 8 -34 11 -420 11 -445 0z"/>
<path d="M9025 1490 c-12 -5 80 -8 225 -8 137 0 234 4 220 8 -34 11 -420 11 -445 0z"/>
<path d="M9710 1490 c-14 -4 86 -8 225 -8 139 0 239 4 225 8 -14 4 -115 8 -225 8 -110 0 -211 -4 -225 -8z"/>
<path d="M11435 1490 c-12 -5 80 -8 225 -8 137 0 234 4 220 8 -34 11 -420 11 -445 0z"/>
<path d="M870 1180 c20 -13 313 -13 305 0 -4 6 -69 10 -163 10 -105 0 -152 -4 -142 -10z"/>
<path d="M3445 1039 c56 -11 103 -11 110 1 4 6 -22 10 -72 9 -68 -1 -73 -2 -38 -10z"/>
<path d="M8760 1030 c20 -13 170 -13 170 0 0 6 -37 10 -92 10 -64 0 -88 -3 -78 -10z"/>
<path d="M838 888 c60 -7 87 -7 95 1 8 8 -14 11 -84 10 l-94 -2 83 -9z"/>
<path d="M1338 888 c60 -7 87 -7 95 1 8 8 -14 11 -83 10 l-95 -2 83 -9z"/>
<path d="M7468 888 c60 -7 87 -7 95 1 8 8 -14 11 -83 10 l-95 -2 83 -9z"/>
<path d="M10360 888 c184 -6 295 -6 315 0 21 7 -67 10 -285 9 l-315 0 285 -9z"/>
<path d="M4775 880 c76 -12 603 -12 610 0 4 7 -107 10 -327 9 -200 -1 -313 -5 -283 -9z"/>
<path d="M3275 740 c-4 -6 27 -10 85 -10 58 0 89 4 85 10 -3 6 -42 10 -85 10 -43 0 -82 -4 -85 -10z"/>
<path d="M7880 610 c0 -6 32 -10 75 -10 43 0 75 4 75 10 0 6 -32 10 -75 10 -43 0 -75 -4 -75 -10z"/>
<path d="M8570 540 c0 -5 20 -10 45 -10 25 0 45 5 45 10 0 6 -20 10 -45 10 -25 0 -45 -4 -45 -10z"/>
<path d="M8875 540 c3 -5 26 -10 51 -10 24 0 44 5 44 10 0 6 -23 10 -51 10 -31 0 -48 -4 -44 -10z"/>
<path d="M8680 470 c-10 -7 13 -10 73 -10 56 0 86 4 82 10 -8 13 -135 13 -155 0z"/>
<path d="M4845 341 c-29 -4 65 -10 227 -15 152 -5 294 -5 315 0 l38 7 -45 8 c-53 9 -463 9 -535 0z"/>
<path d="M6125 341 c-53 -7 284 -21 455 -20 117 1 159 13 80 22 -66 8 -464 6 -535 -2z"/>
<path d="M7371 341 c-9 -6 15 -11 67 -16 81 -7 125 1 86 16 -27 11 -136 11 -153 0z"/>
<path d="M9995 341 c-53 -7 284 -21 455 -20 117 1 159 13 80 22 -66 8 -464 6 -535 -2z"/>
<path d="M10795 341 c-19 -5 22 -10 117 -15 139 -8 206 -1 148 15 -32 9 -226 9 -265 0z"/>
<path d="M11585 341 c-30 -7 129 -21 236 -21 28 0 49 -5 52 -12 3 -7 6 -3 6 8 1 17 -7 23 -36 28 -49 8 -219 6 -258 -3z"/>
<path d="M8450 310 c-10 -7 20 -10 95 -10 75 0 105 3 95 10 -8 5 -51 10 -95 10 -44 0 -87 -5 -95 -10z"/>
<path d="M8840 310 c-10 -7 20 -10 95 -10 75 0 105 3 95 10 -8 5 -51 10 -95 10 -44 0 -87 -5 -95 -10z"/>
</g>


</svg>