<!DOCTYPE svg PUBLIC "-//W3C//DTD SVG 20010904//EN" "http://www.w3.org/TR/2001/REC-SVG-20010904/DTD/svg10.dtd">
<svg version="1.0" xmlns="http://www.w3.org/2000/svg" width="17" height="16" viewBox="0 0 6700 6700" preserveAspectRatio="xMidYMid meet">
<g id="layer101" fill="#adadad" stroke="none">
 <path d="M1587 6454 c-155 -28 -310 -104 -424 -208 -116 -106 -190 -231 -235 -398 -21 -77 -23 -102 -23 -358 0 -279 9 -392 46 -610 76 -448 217 -781 423 -998 39 -41 98 -94 132 -118 137 -98 327 -165 510 -179 111 -8 111 -9 381 167 103 67 230 141 282 164 400 175 776 196 1171 64 171 -56 266 -104 463 -233 256 -168 262 -171 367 -163 150 13 267 44 390 106 344 172 578 581 679 1185 39 233 46 326 46 610 -1 259 -2 286 -23 360 -86 309 -287 506 -611 598 l-76 22 -1710 2 c-1436 1 -1722 -1 -1788 -13z"/>
 <path d="M553 3790 c-244 -26 -446 -158 -513 -336 -36 -98 -43 -186 -31 -438 23 -479 92 -763 219 -899 53 -56 104 -85 165 -93 40 -6 59 1 228 84 182 90 336 150 457 178 180 42 401 36 606 -15 61 -16 112 -28 113 -27 1 1 -3 48 -8 106 -15 179 10 401 68 585 29 92 114 275 166 355 l36 55 -62 8 c-191 23 -326 61 -461 128 -111 55 -196 118 -307 226 l-95 93 -255 -1 c-140 -1 -287 -5 -326 -9z"/>
 <path d="M3200 3789 c-303 -29 -570 -158 -796 -383 -197 -198 -323 -435 -371 -700 -22 -123 -22 -360 1 -486 74 -411 367 -792 747 -969 197 -92 315 -116 569 -116 204 0 280 10 421 56 353 115 683 423 820 765 198 494 87 1055 -283 1433 -238 242 -501 370 -829 400 -126 12 -155 12 -279 0z"/>
 <path d="M5491 3729 c-130 -143 -336 -269 -526 -324 -49 -15 -143 -34 -207 -43 l-117 -17 36 -55 c52 -80 137 -263 166 -355 59 -187 84 -398 68 -576 -5 -63 -9 -114 -8 -115 1 -1 52 11 113 27 205 51 426 57 606 15 120 -28 274 -88 458 -177 168 -82 189 -90 228 -85 180 24 305 250 356 646 25 192 40 563 27 650 -31 197 -113 308 -296 395 -146 70 -195 78 -540 82 l-300 3 -64 -71z"/>
 <path d="M1172 1999 c-264 -44 -523 -246 -642 -502 -57 -121 -73 -205 -73 -377 0 -140 3 -164 27 -245 105 -347 401 -595 759 -634 203 -23 410 24 570 128 150 98 260 223 332 376 66 139 80 204 79 380 -1 134 -4 160 -28 239 -15 50 -48 131 -74 180 -39 77 -64 108 -157 201 -151 151 -287 224 -475 254 -76 13 -242 12 -318 0z"/>
 <path d="M5215 2003 c-261 -36 -527 -231 -650 -478 -71 -141 -88 -221 -88 -405 0 -140 3 -164 27 -245 66 -218 212 -405 410 -524 144 -86 362 -130 543 -110 308 34 570 218 703 494 71 147 85 210 84 390 -1 133 -4 160 -27 238 -51 166 -124 284 -254 408 -128 123 -285 201 -453 228 -63 10 -233 12 -295 4z"/>
 </g>

</svg>