<!DOCTYPE svg PUBLIC "-//W3C//DTD SVG 20010904//EN" "http://www.w3.org/TR/2001/REC-SVG-20010904/DTD/svg10.dtd">
<svg version="1.0" xmlns="http://www.w3.org/2000/svg" width="16" height="17" viewBox="0 0 6700 6700" preserveAspectRatio="xMidYMid meet">
<g id="layer101" fill="#91cf37" stroke="none">
 <path d="M1470 6684 c-244 -44 -447 -148 -605 -308 -184 -185 -278 -401 -306 -698 -21 -216 9 -655 66 -961 51 -278 110 -467 211 -677 94 -194 177 -315 308 -445 210 -208 449 -316 763 -346 184 -17 193 -14 499 182 224 144 317 191 490 249 167 55 280 74 454 74 174 0 287 -19 454 -74 174 -59 266 -105 493 -251 278 -178 293 -184 418 -183 333 5 642 137 862 368 335 350 523 914 564 1688 12 241 7 379 -22 520 -45 227 -136 404 -283 551 -162 162 -346 256 -595 306 -102 21 -119 21 -1900 20 -1469 -1 -1810 -4 -1871 -15z"/>
 <path d="M3140 3220 c-467 -44 -884 -291 -1165 -690 -281 -399 -357 -932 -203 -1420 74 -235 198 -431 397 -631 293 -292 595 -434 1007 -470 361 -32 727 61 1024 261 360 243 601 598 691 1020 31 144 34 463 5 615 -107 577 -532 1064 -1086 1245 -185 61 -461 89 -670 70z"/>
 </g>

</svg>